<?xml version="1.0" ?><svg height="512" id="svg2" version="1.1" width="512" xmlns="http://www.w3.org/2000/svg" xmlns:cc="http://creativecommons.org/ns#" xmlns:dc="http://purl.org/dc/elements/1.1/" xmlns:inkscape="http://www.inkscape.org/namespaces/inkscape" xmlns:rdf="http://www.w3.org/1999/02/22-rdf-syntax-ns#" xmlns:sodipodi="http://sodipodi.sourceforge.net/DTD/sodipodi-0.dtd" xmlns:svg="http://www.w3.org/2000/svg"><defs id="defs4"/><g id="layer1" transform="translate(0,-540.36218)"><g id="g4305"><g id="g4345" transform="translate(28,-40.00001)"><g id="text2994" style="font-size:550px;font-style:normal;font-variant:normal;font-weight:normal;font-stretch:normal;text-align:start;line-height:125%;letter-spacing:0px;word-spacing:0px;writing-mode:lr-tb;text-anchor:start;fill:#222222;fill-opacity:1;stroke:none;font-family:Ubuntu;-inkscape-font-specification:Ubuntu"><g id="g3830" transform="translate(0,15.24359)"><g id="g3838"><g id="g3785"><path d="m 263.5,86 c -56.36304,0 -70,15 -70,15 l -14.53125,36 -4,4 -21.46875,0 c 0,-5.52284 -13.43146,-10 -30,-10 -16.56854,0 -30,4.47716 -30,10 -28.90148,0.23664 -48.902423,10.08986 -57.96875,24.46875 C 26.464923,179.84764 13.5,228.4557 13.5,286 c 0,69.0356 13.43146,125 30,125 l 141.71875,0 C 150.94023,386.5113 128.5625,346.3724 128.5625,301 c 0,-74.6159 60.55009,-135.0625 134.9375,-135.0625 74.38742,0 134.90625,60.4466 134.90625,135.0625 0,45.3724 -22.35573,85.5113 -56.625,110 L 468.5,411 c 16.56854,0 30,-55.9644 30,-125 0,-57.5443 -12.93456,-106.07135 -22.03125,-120.53125 C 467.37206,151.00885 446.84897,141 417.5,141 l -65.46875,0 -4,-4 L 333.5,101 c 0,0 -13.63696,-15 -70,-15 z m 132,80 55,0 5,5 0,20 -5,5 -55,0 -5,-5 0,-20 z m -132,10 c -20.49494,0 -39.83766,4.94498 -56.90625,13.6875 -0.0332,0.0169 -0.0607,0.0456 -0.0937,0.0625 -0.86471,0.44389 -1.74088,0.88044 -2.59375,1.34375 -0.0328,0.0177 -0.061,0.0447 -0.0937,0.0625 -3.50735,1.90942 -6.89352,3.96213 -10.1875,6.1875 -0.0429,0.0289 -0.0821,0.0649 -0.125,0.0937 -0.78778,0.53364 -1.60018,1.074 -2.375,1.625 -0.0308,0.0218 -0.0631,0.0406 -0.0937,0.0625 -1.28961,0.91597 -2.55994,1.8808 -3.8125,2.84375 -0.29936,0.23091 -0.60905,0.45395 -0.90625,0.6875 -0.0345,0.027 -0.0593,0.0668 -0.0937,0.0937 -0.75157,0.59192 -1.48124,1.1726 -2.21875,1.78125 -0.36665,0.30151 -0.73063,0.60068 -1.09375,0.90625 -0.40448,0.34152 -0.8187,0.68471 -1.21875,1.03125 -0.0334,0.0289 -0.0605,0.065 -0.0937,0.0937 -0.72208,0.62681 -1.44884,1.26329 -2.15625,1.90625 -0.0277,0.0251 -0.0661,0.0374 -0.0937,0.0625 -0.71203,0.6483 -1.3969,1.33562 -2.09375,2 -0.0268,0.0254 -0.067,0.037 -0.0937,0.0625 -2.13921,2.03779 -4.19729,4.16016 -6.1875,6.34375 -0.0297,0.033 -0.0642,0.0608 -0.0937,0.0937 -20.17544,22.1823 -32.46875,51.63525 -32.46875,83.96875 0,31.29749 11.52808,59.8922 30.5625,81.8125 0.65486,0.756 1.32747,1.5101 2,2.25 2.48913,2.7316 5.09193,5.34184 7.8125,7.84375 0.40532,0.3737 0.8085,0.7565 1.21875,1.125 0.24729,0.2214 0.50094,0.43675 0.75,0.65625 0.66672,0.5893 1.35197,1.1748 2.03125,1.75 0.25206,0.2128 0.49623,0.44535 0.75,0.65625 0.15289,0.1274 0.31524,0.2483 0.46875,0.375 0.18358,0.151 0.37804,0.2874 0.5625,0.4375 0.64132,0.5231 1.25444,1.0519 1.90625,1.5625 0.68113,0.532 1.37012,1.0443 2.0625,1.5625 0.15512,0.1164 0.31307,0.22805 0.46875,0.34375 0.39592,0.2934 0.78799,0.5862 1.1875,0.875 1.07281,0.7781 2.18312,1.53675 3.28125,2.28125 0.0546,0.037 0.10157,0.088 0.15625,0.125 1.09405,0.7391 2.19416,1.45125 3.3125,2.15625 1.17377,0.74 2.36281,1.45465 3.5625,2.15625 1.1991,0.7012 2.40088,1.36925 3.625,2.03125 17.66251,9.5515 37.88576,15 59.375,15 21.48924,0 41.71249,-5.4485 59.375,-15 1.22412,-0.662 2.4259,-1.33005 3.625,-2.03125 1.19969,-0.7016 2.38873,-1.41625 3.5625,-2.15625 1.11834,-0.705 2.21845,-1.41715 3.3125,-2.15625 0.055,-0.037 0.10126,-0.088 0.15625,-0.125 1.09813,-0.7445 2.20844,-1.50315 3.28125,-2.28125 0.39967,-0.2899 0.79142,-0.5805 1.1875,-0.875 0.15606,-0.11571 0.31325,-0.22735 0.46875,-0.34375 0.68801,-0.5165 1.38559,-1.0323 2.0625,-1.5625 0.64824,-0.5066 1.2684,-1.0436 1.90625,-1.5625 0.59589,-0.4861 1.19456,-0.97195 1.78125,-1.46875 0.67789,-0.5725 1.36588,-1.1634 2.03125,-1.75 0.24804,-0.2192 0.50371,-0.43515 0.75,-0.65625 0.41383,-0.3707 0.80994,-0.7489 1.21875,-1.125 1.24974,-1.1498 2.45446,-2.33205 3.65625,-3.53125 0.704,-0.70251 1.40664,-1.406 2.09375,-2.125 0.6923,-0.72441 1.38767,-1.4466 2.0625,-2.1875 0.67253,-0.7399 1.34514,-1.494 2,-2.25 1.31104,-1.51051 2.57426,-3.05221 3.8125,-4.625 1.23765,-1.572 2.43143,-3.18091 3.59375,-4.8125 4.65868,-6.53951 8.68698,-13.5464 12.03125,-20.9375 0.41608,-0.9196 0.82446,-1.85005 1.21875,-2.78125 6.33422,-14.9613 9.875,-31.38645 9.875,-48.65625 0,-32.3335 -12.26935,-61.78645 -32.4375,-83.96875 -0.0295,-0.033 -0.0643,-0.0608 -0.0937,-0.0937 -1.34141,-1.4723 -2.74648,-2.90589 -4.15625,-4.3125 -1.85559,-1.85559 -3.74998,-3.66975 -5.71875,-5.40625 -1.00082,-0.88041 -2.03356,-1.74521 -3.0625,-2.59375 -0.0337,-0.0279 -0.06,-0.0659 -0.0937,-0.0937 -1.31153,-1.07925 -2.64433,-2.13017 -4,-3.15625 -0.20687,-0.15701 -0.41712,-0.313 -0.625,-0.46875 -0.0302,-0.0225 -0.0636,-0.04 -0.0937,-0.0625 -0.82043,-0.61356 -1.63292,-1.2188 -2.46875,-1.8125 -4.03678,-2.86737 -8.25275,-5.49472 -12.625,-7.875 -0.91877,-0.49846 -1.84868,-0.9928 -2.78125,-1.46875 C 303.33711,180.94508 283.99494,176 263.5,176 z m 0,45 c 44.18278,0 80,35.8172 80,80 0,44.1828 -35.81722,80 -80,80 -44.18278,0 -80,-35.8172 -80,-80 0,-44.1828 35.81722,-80 80,-80 z" id="path3812" style="color:#000000;fill:#222222;fill-opacity:1;fill-rule:nonzero;stroke:none;stroke-width:20;marker:none;visibility:visible;display:inline;overflow:visible;enable-background:accumulate" transform="translate(-28,565.1186)"/></g></g></g><g id="layer1-4" transform="translate(539.77941,-13.359245)"><g id="layer1-5" transform="translate(-573.14286,170.28574)"/></g></g></g></g></g></svg>