<?xml version="1.0" ?><!DOCTYPE svg  PUBLIC '-//W3C//DTD SVG 1.1//EN'  'http://www.w3.org/Graphics/SVG/1.1/DTD/svg11.dtd'><svg enable-background="new 0.001 -0.266 32 32" height="32px" overflow="visible" version="1.1" viewBox="0.001 -0.266 32 32" width="32px" xml:space="preserve" xmlns="http://www.w3.org/2000/svg" xmlns:xlink="http://www.w3.org/1999/xlink"><defs/><path d="M30.664,18.316c0.119-0.754,0.183-1.527,0.183-2.316c0-8.199-6.647-14.848-14.848-14.848  c-0.786,0-1.562,0.066-2.316,0.184C12.315,0.488,10.701,0,8.972,0C4.017,0,0,4.016,0,8.973c0,1.729,0.49,3.34,1.336,4.711  C1.219,14.439,1.154,15.211,1.154,16c0,8.199,6.646,14.844,14.845,14.844c0.788,0,1.562-0.061,2.317-0.18  C19.686,31.508,21.298,32,23.027,32C27.983,32,32,27.982,32,23.027C32,21.297,31.511,19.686,30.664,18.316z M23.048,22.75  c-0.628,0.906-1.55,1.613-2.756,2.121c-1.208,0.508-2.636,0.762-4.284,0.762c-1.977,0-3.613-0.346-4.904-1.043  c-0.915-0.5-1.66-1.172-2.232-2.008c-0.573-0.838-0.864-1.656-0.864-2.457c0-0.471,0.18-0.881,0.53-1.215  c0.354-0.336,0.81-0.506,1.347-0.506c0.44,0,0.818,0.133,1.127,0.396c0.306,0.262,0.562,0.645,0.771,1.148  c0.252,0.582,0.524,1.07,0.815,1.461c0.289,0.385,0.695,0.707,1.221,0.957c0.521,0.254,1.214,0.379,2.08,0.379  c1.187,0,2.146-0.258,2.879-0.762c0.737-0.512,1.092-1.133,1.092-1.885c0-0.6-0.191-1.074-0.582-1.445  c-0.396-0.375-0.906-0.662-1.539-0.861c-0.636-0.201-1.489-0.416-2.56-0.641c-1.436-0.312-2.638-0.68-3.61-1.098  c-0.975-0.422-1.75-0.996-2.325-1.723C8.677,13.6,8.39,12.688,8.39,11.607c0-1.029,0.303-1.951,0.91-2.752  c0.607-0.805,1.485-1.418,2.63-1.848c1.142-0.428,2.484-0.641,4.023-0.641c1.23,0,2.295,0.141,3.196,0.426  c0.898,0.285,1.647,0.66,2.246,1.133c0.596,0.473,1.033,0.969,1.311,1.492s0.417,1.035,0.417,1.533c0,0.463-0.18,0.885-0.53,1.252  c-0.351,0.371-0.798,0.559-1.321,0.557c-0.472,0-0.842-0.107-1.099-0.338c-0.25-0.223-0.513-0.578-0.797-1.074  c-0.358-0.689-0.788-1.227-1.288-1.611c-0.487-0.377-1.29-0.574-2.408-0.572c-1.033,0-1.861,0.211-2.485,0.625  c-0.628,0.42-0.929,0.906-0.93,1.477c0.001,0.359,0.104,0.66,0.311,0.918c0.21,0.262,0.502,0.486,0.878,0.676  c0.376,0.193,0.758,0.344,1.143,0.449c0.389,0.111,1.033,0.27,1.93,0.48c1.125,0.242,2.145,0.514,3.061,0.809  c0.915,0.297,1.695,0.654,2.34,1.08c0.65,0.426,1.158,0.967,1.521,1.621c0.364,0.654,0.547,1.455,0.547,2.396  C23.994,20.828,23.678,21.848,23.048,22.75z" id="skype_1_"/></svg>